<svg id="arrow_forward" data-name="arrow forward" xmlns="http://www.w3.org/2000/svg" width="35.447" height="35.447" viewBox="0 0 35.447 35.447">
  <g id="Grupo_5" data-name="Grupo 5" transform="translate(0 35.447) rotate(-90)" opacity="0">
    <path id="Caminho_12" data-name="Caminho 12" d="M0,0H35.447V35.447H0Z" fill="#fff"/>
  </g>
  <path id="Caminho_13" data-name="Caminho 13" d="M9.477,21.816H26.994l-5.361,6.44a1.479,1.479,0,1,0,2.275,1.89l7.385-8.862a1.759,1.759,0,0,0,.133-.222c0-.074.074-.118.1-.192a1.45,1.45,0,0,0,.1-.532h0a1.45,1.45,0,0,0-.1-.532c0-.074-.074-.118-.1-.192a1.759,1.759,0,0,0-.133-.222l-7.385-8.862a1.483,1.483,0,0,0-2.614.812,1.5,1.5,0,0,0,.34,1.078l5.361,6.44H9.477a1.477,1.477,0,1,0,0,2.954Z" transform="translate(-2.092 -2.615)" fill="#fff"/>
  <path id="Caminho_14" data-name="Caminho 14" d="M0,0H35.447V35.447H0Z" fill="none"/>
</svg>
