<svg xmlns="http://www.w3.org/2000/svg" width="4.58" height="21" viewBox="0 0 4.58 21">
  <g id="Grupo_12" data-name="Grupo 12" transform="translate(-256.42 -195)">
    <path id="Caminho_39" data-name="Caminho 39" d="M26.29,24A2.29,2.29,0,1,1,24,21.71,2.3,2.3,0,0,1,26.29,24Z" transform="translate(282.71 181.5) rotate(90)" fill-rule="evenodd"/>
    <path id="Caminho_40" data-name="Caminho 40" d="M14.86,24a2.285,2.285,0,1,1-2.29-2.29A2.3,2.3,0,0,1,14.86,24Z" transform="translate(282.71 184.71) rotate(90)" fill-rule="evenodd"/>
    <path id="Caminho_41" data-name="Caminho 41" d="M37.71,24a2.285,2.285,0,1,1-2.28-2.29A2.288,2.288,0,0,1,37.71,24Z" transform="translate(282.71 178.29) rotate(90)" fill-rule="evenodd"/>
  </g>
</svg>
