<svg xmlns="http://www.w3.org/2000/svg" width="16" height="22.555" viewBox="0 0 16 22.555">
  <path id="Subtração_1" data-name="Subtração 1" d="M-1840-1316.445h0c-.02-.024-2.031-2.467-4-5.412-1.825-2.731-4-6.482-4-8.848a8.16,8.16,0,0,1,8-8.294,8.16,8.16,0,0,1,8,8.294c0,2.366-2.175,6.118-4,8.848-1.967,2.944-3.979,5.388-4,5.412Zm0-18.386a3.5,3.5,0,0,0-3.428,3.554,3.5,3.5,0,0,0,3.428,3.554,3.5,3.5,0,0,0,3.428-3.554A3.5,3.5,0,0,0-1840-1334.832Z" transform="translate(1848 1339)" fill="#eac00f"/>
</svg>
