<svg id="maximise" xmlns="http://www.w3.org/2000/svg" width="30.5" height="30.5" viewBox="0 0 30.5 30.5">
  <path id="Caminho_5" data-name="Caminho 5" d="M24.377,21.473V4.044a2.9,2.9,0,0,0-2.9-2.9H4.044a2.907,2.907,0,0,0-2.9,2.9V21.473a2.9,2.9,0,0,0,2.9,2.9H21.473A2.9,2.9,0,0,0,24.377,21.473Z" transform="translate(2.489 2.489)" fill="none" stroke="#fff" stroke-linecap="round" stroke-linejoin="round" stroke-width="2"/>
  <path id="Caminho_6" data-name="Caminho 6" d="M1.14,18.569H15.666a2.907,2.907,0,0,0,2.9-2.9V1.14" transform="translate(2.489 2.489)" fill="none" stroke="#fff" stroke-linecap="round" stroke-linejoin="round" stroke-width="2"/>
  <path id="Caminho_7" data-name="Caminho 7" d="M1.14,12.762H11.307a1.451,1.451,0,0,0,1.455-1.455V1.14" transform="translate(2.489 2.489)" fill="none" stroke="#fff" stroke-linecap="round" stroke-linejoin="round" stroke-width="2"/>
  <path id="Caminho_8" data-name="Caminho 8" d="M0,0H30.5V30.5H0Z" fill="none"/>
</svg>
